<?xml version="1.0" encoding="UTF-8"?><svg id="uuid-061704fc-7422-46e3-b6bf-ad76e5dcbe8d" xmlns="http://www.w3.org/2000/svg" viewBox="0 0 666.74 577.5"><defs><style>.uuid-94af38b6-b1cb-4da1-a53c-dc57db00f8d6{fill:#fff;}</style></defs><path class="uuid-94af38b6-b1cb-4da1-a53c-dc57db00f8d6" d="M362.64,189.78l-124.64,219.42c-1.2,1.93,1.44,3.92,2.97,2.24L611.04,3.12c1.09-1.2.24-3.12-1.38-3.12H4.62c-1.68,0-2.5,2.04-1.3,3.21l91.86,88.6c.35.34.81.52,1.3.52h264.29c1.03,0,1.87.84,1.87,1.87"/><path class="uuid-94af38b6-b1cb-4da1-a53c-dc57db00f8d6" d="M664.98,7.54l-291.1,327.95,187.92,242.01h101.53l-191.99-242.32L666.59,8.7c.61-1.04-.81-2.07-1.61-1.17Z"/><path class="uuid-94af38b6-b1cb-4da1-a53c-dc57db00f8d6" d="M0,348.72h107.51v70.57c0,6.32,2.49,12.37,6.92,16.81l24.88,24.97c5.73,5.75,13.47,8.98,21.53,8.98h184.74c8.38,0,15.17-6.89,15.17-15.39v-59.28l104.26,133.69-43.04,40.33c-5.55,5.2-12.83,8.09-20.39,8.09H119.58c-15.3,0-29.96-6.21-40.71-17.24l-60.38-61.92c-11.84-12.15-18.49-28.54-18.49-45.62v-104Z"/></svg>